<svg width="121" height="38" viewBox="0 0 121 38" fill="none" xmlns="http://www.w3.org/2000/svg">
<g filter="url(#filter0_d_1_5)">
<path d="M6.75 6.375V30H4.95V5.7C4.95 4.26 4.635 3.15 4.005 2.37C3.405 1.59 2.37 1.2 0.9 1.2H0.45V0.299999H3.375C4.755 0.299999 5.925 0.524999 6.885 0.974998C7.845 1.425 8.7 2.1 9.45 3L25.2 22.575V0.299999H27V30.45H26.1L6.75 6.375ZM42.423 30.45C40.383 30.45 38.613 29.97 37.113 29.01C35.613 28.02 34.473 26.685 33.693 25.005C32.913 23.325 32.523 21.465 32.523 19.425C32.523 17.385 32.913 15.525 33.693 13.845C34.473 12.165 35.613 10.845 37.113 9.885C38.613 8.895 40.383 8.4 42.423 8.4C44.463 8.4 46.233 8.895 47.733 9.885C49.233 10.845 50.373 12.165 51.153 13.845C51.933 15.525 52.323 17.385 52.323 19.425C52.323 21.465 51.933 23.325 51.153 25.005C50.373 26.685 49.233 28.02 47.733 29.01C46.233 29.97 44.463 30.45 42.423 30.45ZM42.423 28.65C43.533 28.65 44.508 28.245 45.348 27.435C46.218 26.625 46.878 25.515 47.328 24.105C47.808 22.695 48.048 21.135 48.048 19.425C48.048 17.715 47.808 16.155 47.328 14.745C46.878 13.335 46.218 12.225 45.348 11.415C44.508 10.605 43.533 10.2 42.423 10.2C41.313 10.2 40.323 10.605 39.453 11.415C38.613 12.225 37.953 13.335 37.473 14.745C37.023 16.155 36.798 17.715 36.798 19.425C36.798 21.135 37.023 22.695 37.473 24.105C37.953 25.515 38.613 26.625 39.453 27.435C40.323 28.245 41.313 28.65 42.423 28.65ZM63.8554 30.45C62.1754 30.45 60.8554 29.97 59.8954 29.01C58.9354 28.05 58.4554 26.58 58.4554 24.6V10.65H55.3054V8.85H58.4554V4.8L60.7054 2.1H62.5054V8.85H67.9054V10.65H62.5054V24.6C62.5054 27.3 63.5554 28.65 65.6554 28.65C66.3754 28.65 66.9754 28.575 67.4554 28.425C67.9654 28.275 68.4904 28.05 69.0304 27.75L69.4804 28.65C68.7904 29.16 68.0254 29.595 67.1854 29.955C66.3454 30.285 65.2354 30.45 63.8554 30.45ZM81.0404 30.45C79.0004 30.45 77.2754 29.97 75.8654 29.01C74.4554 28.02 73.3904 26.7 72.6704 25.05C71.9504 23.37 71.5904 21.495 71.5904 19.425C71.5904 17.385 71.9504 15.525 72.6704 13.845C73.3904 12.165 74.4254 10.845 75.7754 9.885C77.1554 8.895 78.7604 8.4 80.5904 8.4C83.6204 8.4 85.8704 9.255 87.3404 10.965C88.8404 12.645 89.5904 15.09 89.5904 18.3L89.5004 20.1H75.8654C75.8654 22.62 76.4054 24.675 77.4854 26.265C78.5654 27.855 80.0504 28.65 81.9404 28.65C83.3504 28.65 84.5354 28.35 85.4954 27.75C86.4854 27.15 87.4004 26.25 88.2404 25.05L89.1404 25.725C88.1504 27.375 86.9954 28.575 85.6754 29.325C84.3554 30.075 82.8104 30.45 81.0404 30.45ZM85.3154 18.3C85.3154 15.66 84.9254 13.65 84.1454 12.27C83.3654 10.89 82.1804 10.2 80.5904 10.2C79.6904 10.2 78.8804 10.56 78.1604 11.28C77.4404 11.97 76.8704 12.93 76.4504 14.16C76.0604 15.39 75.8654 16.77 75.8654 18.3H85.3154ZM99.745 19.875L95.83 13.35C94.57 11.16 93.025 9.96 91.195 9.75V8.85H95.02C96.01 8.85 96.94 9.165 97.81 9.795C98.68 10.425 99.445 11.31 100.105 12.45L102.895 17.175L108.745 8.85H110.995L103.795 18.975L107.71 25.5C108.94 27.66 110.56 28.86 112.57 29.1V30H108.52C107.53 30 106.6 29.685 105.73 29.055C104.86 28.425 104.095 27.54 103.435 26.4L100.645 21.675L94.795 30H92.545L99.745 19.875Z" fill="#020000"/>
</g>
<defs>
<filter id="filter0_d_1_5" x="0.449997" y="0.300003" width="120.02" height="37.05" filterUnits="userSpaceOnUse" color-interpolation-filters="sRGB">
<feFlood flood-opacity="0" result="BackgroundImageFix"/>
<feColorMatrix in="SourceAlpha" type="matrix" values="0 0 0 0 0 0 0 0 0 0 0 0 0 0 0 0 0 0 127 0" result="hardAlpha"/>
<feOffset dx="5" dy="4"/>
<feGaussianBlur stdDeviation="1.45"/>
<feComposite in2="hardAlpha" operator="out"/>
<feColorMatrix type="matrix" values="0 0 0 0 0 0 0 0 0 0 0 0 0 0 0 0 0 0 0.25 0"/>
<feBlend mode="normal" in2="BackgroundImageFix" result="effect1_dropShadow_1_5"/>
<feBlend mode="normal" in="SourceGraphic" in2="effect1_dropShadow_1_5" result="shape"/>
</filter>
</defs>
</svg>
